<svg xmlns="http://www.w3.org/2000/svg" xmlns:xlink="http://www.w3.org/1999/xlink" width="681" zoomAndPan="magnify" viewBox="0 0 510.75 240.749995" height="321" preserveAspectRatio="xMidYMid meet" version="1.0"><defs><g/></defs><g fill="#f76b15" fill-opacity="1"><g transform="translate(30.211718, 185.109217)"><g><path d="M 65.78125 -28.1875 L 65.78125 -103.375 L 28.1875 -103.375 L 28.1875 -28.1875 Z M 0 0 L 0 -131.5625 L 93.96875 -131.5625 L 93.96875 0 Z M 0 0 "/></g></g></g><g fill="#000000" fill-opacity="1"><g transform="translate(133.288268, 185.109217)"><g><path d="M 0 0 L 0 -9.390625 L 28.1875 -65.78125 L 0 -122.171875 L 0 -131.5625 L 23.5 -131.5625 L 46.984375 -84.578125 L 70.484375 -131.5625 L 93.96875 -131.5625 L 93.96875 -122.171875 L 65.78125 -65.78125 L 93.96875 -9.390625 L 93.96875 0 L 70.484375 0 L 46.984375 -46.984375 L 23.5 0 Z M 0 0 "/></g></g></g><g fill="#000000" fill-opacity="1"><g transform="translate(236.358714, 185.109217)"><g><path d="M 0 0 L 0 -93.96875 L 28.1875 -93.96875 L 28.1875 0 Z M 0 -103.375 L 0 -131.5625 L 28.1875 -131.5625 L 28.1875 -103.375 Z M 0 -103.375 "/></g></g></g><g fill="#000000" fill-opacity="1"><g transform="translate(273.652008, 185.109217)"><g><path d="M 65.78125 -28.1875 L 65.78125 -93.96875 L 56.390625 -103.375 L 28.1875 -103.375 L 28.1875 -28.1875 Z M 0 0 L 0 -131.5625 L 65.78125 -131.5625 L 93.96875 -103.375 L 93.96875 0 Z M 0 0 "/></g></g></g><g fill="#000000" fill-opacity="1"><g transform="translate(376.722454, 185.109217)"><g><path d="M 0 0 L 0 -131.5625 L 93.96875 -131.5625 L 93.96875 -103.375 L 28.1875 -103.375 L 28.1875 -84.578125 L 93.96875 -84.578125 L 93.96875 -56.390625 L 28.1875 -56.390625 L 28.1875 -28.1875 L 93.96875 -28.1875 L 93.96875 0 Z M 0 0 "/></g></g></g></svg>