<svg xmlns="http://www.w3.org/2000/svg" role="img" fill="none" viewBox="3.5215821 3.2680596244131457 60.756 49.01877934272301" style="max-height: 500px" width="60.756" height="49.01877934272301">
    <title>RustHelp Logo</title>
    <g filter="url(#filter0_d_364_2047)">
		<g>
			<path fill="#B93C38" d="M55.5992 20.1647C56.0526 20.8555 57.3112 21.8356 57.1601 22.2307C57.1601 22.2307 55.1998 27.2176 55.0854 27.3126L52.1343 29.7369L46.8603 30.6242C46.7977 30.6328 46.7372 30.6501 46.6789 30.6738L15.7321 43.2102H15.73C13.7849 43.0116 12.2802 42.854 11.557 42.7784C11.2612 42.7482 11.0043 42.569 10.8726 42.3013C10.8014 42.1545 10.7085 41.9041 10.5984 41.5716L38.348 28.9705L55.3229 20.3827L55.5992 20.1647Z"/>
			<path fill="#E23C31" d="M55.3229 20.3827L38.348 28.9705L10.5984 41.5716C10.3826 40.9218 10.1019 39.9525 9.79105 38.8213L34.3952 26.8139C34.5636 26.7318 34.5679 26.8527 34.6543 26.6887L49.2393 13.5695L53.6735 13.3946C54.1614 13.3773 54.5695 13.7681 54.5695 14.2581L55.4956 19.6034C55.3833 19.7372 55.4459 19.9337 55.5992 20.1647L55.3229 20.3827Z"/>
			<path fill="#B93C38" d="M46.8603 30.6242L52.1343 29.7369C52.0717 29.7888 44.8008 41.6537 44.8008 41.6537L37.7781 38.9141C37.5903 38.8407 37.383 38.8342 37.1909 38.899L22.88 43.9269C20.2765 43.6722 17.7636 43.4174 15.7321 43.2102L46.679 30.6739C46.7372 30.6501 46.7977 30.6329 46.8603 30.6242Z"/>
			<path fill="#E23C31" d="M49.2393 13.5695L34.6543 26.6887L34.786 26.4318L44.8461 6.89221C45.0274 6.96561 45.1807 7.09946 45.2779 7.27864L48.4449 13.1183C48.6025 13.4076 48.909 13.5824 49.2393 13.5695Z"/>
			<path fill="#74261E" d="M37.7781 38.9141L44.8008 41.6537C44.7187 41.8113 44.5871 41.9408 44.4273 42.0228L38.3157 45.1315C38.0005 45.3496 30.0927 44.6329 22.88 43.9269L37.1909 38.899C37.383 38.8342 37.5903 38.8407 37.7781 38.9141Z"/>
			<path fill="#E23C31" d="M34.6543 26.6887C34.5679 26.8527 34.5636 26.7318 34.3952 26.8139C34.5636 26.7318 34.6996 26.598 34.7859 26.4318L34.6543 26.6887Z"/>
			<path fill="#E23C31" d="M44.4769 6.8274C44.6043 6.82093 44.7317 6.84467 44.8461 6.89217L34.786 26.4317C34.6996 26.598 34.5636 26.7318 34.3952 26.8138L9.79106 38.8212C8.65335 34.6892 7.11627 28.3704 6.85505 27.2953C6.81835 27.1485 6.81403 26.993 6.86584 26.8484C6.88743 26.7858 6.91765 26.7253 6.95436 26.6692L17.8975 9.74182C18.0227 9.554 18.217 9.42232 18.4393 9.37482L44.4769 6.8274Z"/>
			<path stroke="#242326" d="M22.88 43.9269C30.0927 44.6328 38.0005 45.3495 38.3157 45.1315L44.4273 42.0228C44.5871 41.9407 44.7187 41.8112 44.8008 41.6536"/>
			<path stroke="#242326" d="M52.1343 29.7369L55.0854 27.3126C55.1998 27.2176 57.1601 22.2307 57.1601 22.2307C57.3112 21.8356 56.0526 20.8555 55.5992 20.1647C55.4459 19.9337 55.3833 19.7372 55.4956 19.6034L54.5695 14.2581C54.5695 13.7681 54.1614 13.3773 53.6736 13.3946L49.2393 13.5695"/>
			<path stroke="#242326" d="M15.7321 43.2102L46.679 30.6739C46.7372 30.6501 46.7977 30.6329 46.8603 30.6242L52.1343 29.7369"/>
			<path stroke="#242326" d="M55.3229 20.3827L38.348 28.9705L10.5984 41.5716C10.7085 41.904 10.8014 42.1545 10.8726 42.3013C11.0043 42.569 11.2612 42.7482 11.557 42.7784C12.2802 42.8539 13.7849 43.0115 15.73 43.2101H15.7321C17.7636 43.4174 20.2765 43.6721 22.88 43.9269L37.1909 38.899C37.383 38.8342 37.5903 38.8407 37.7781 38.9141L44.8008 41.6536C44.8008 41.6536 52.0717 29.7887 52.1343 29.7369"/>
			<path stroke="#242326" d="M9.79105 38.8213C10.1019 39.9525 10.3826 40.9218 10.5984 41.5716"/>
			<path stroke="#242326" d="M34.7859 26.4318C34.6996 26.598 34.5636 26.7318 34.3952 26.8139"/>
			<path stroke="#242326" d="M44.8785 6.82745L44.8461 6.89222"/>
			<path stroke="#242326" d="M44.8461 6.89221L34.786 26.4318"/>
			<path stroke="#242326" d="M34.3952 26.8139C34.5636 26.7318 34.5679 26.8527 34.6543 26.6887L34.7859 26.4318"/>
			<path stroke="#242326" d="M34.3952 26.8138L9.79105 38.8212"/>
			<path stroke="#242326" d="M34.6543 26.6886L49.2393 13.5694C48.909 13.5824 48.6025 13.4075 48.4449 13.1182L45.2779 7.2786C45.1807 7.09942 45.0275 6.96557 44.8461 6.89217C44.7317 6.84467 44.6043 6.82093 44.4769 6.8274L18.4393 9.37482C18.217 9.42232 18.0227 9.554 17.8975 9.74182L6.95436 26.6692C6.91765 26.7253 6.88743 26.7858 6.86584 26.8484C6.81403 26.993 6.81835 27.1485 6.85505 27.2953C7.11627 28.3704 8.65335 34.6892 9.79106 38.8212"/>
		</g>
		<path fill="white" d="M82.9977 43.5584V37.4805C82.9977 35.6623 82.8938 35.0909 82.1139 33.6883L80.8661 31.4545C80.2942 30.5195 79.9823 30.3636 79.0464 30.3636H78.1106C77.3827 30.3636 77.1748 30.5714 77.1748 31.2987V43.5584C77.1748 45.0649 76.7588 45.4805 75.2511 45.4805H71.9237C70.4159 45.4805 70 45.0649 70 43.5584V8.44156C70 6.93506 70.4159 6.51948 71.9237 6.51948H78.7865C86.6891 6.51948 90.2765 9.22078 90.2765 15.8701V19.6104C90.2765 23.3506 89.7046 25.7922 87.573 27.5065C87.313 27.6623 87.261 27.8182 87.261 27.974C87.261 28.1299 87.313 28.2857 87.469 28.5455L88.9247 31.1948C90.0165 33.2208 90.1725 34.0519 90.1725 36.8052V43.5584C90.1725 45.0649 89.7566 45.4805 88.2488 45.4805H84.9214C83.4137 45.4805 82.9977 45.0649 82.9977 43.5584ZM77.1748 14.4675V22.3117C77.1748 23.039 77.3827 23.2468 78.1106 23.2468H79.2024C81.646 23.2468 82.8938 22.1558 82.8938 19.6623V16.961C82.8938 14.5195 81.75 13.5325 79.2024 13.5325H78.1106C77.3827 13.5325 77.1748 13.7403 77.1748 14.4675Z"/>
		<path fill="white" d="M106.7 8.44156C106.7 6.93506 107.116 6.51948 108.624 6.51948H111.951C113.459 6.51948 113.875 6.93506 113.875 8.44156V34.5714C113.875 42.9351 111.379 46 103.84 46C96.3018 46 93.8062 42.9351 93.8062 34.5714V8.44156C93.8062 6.93506 94.2221 6.51948 95.7298 6.51948H99.0573C100.565 6.51948 100.981 6.93506 100.981 8.44156V35.8182C100.981 37.8961 101.865 38.7273 103.84 38.7273C105.764 38.7273 106.7 37.8961 106.7 35.8182V8.44156Z"/>
		<path fill="white" d="M126.14 20.3896L132.795 26.4156C136.278 29.5325 137.058 31.4026 137.058 34.8831V35.8182C137.058 42.3636 134.563 46 127.024 46C119.485 46 116.99 42.9351 116.99 34.5714V33.5325C116.99 32.026 117.406 31.6104 118.913 31.6104H122.449C123.956 31.6104 124.372 32.026 124.372 33.5325V35.8182C124.372 37.8961 125.204 38.7273 127.024 38.7273C128.844 38.7273 129.675 37.948 129.675 36.0779V35.0909C129.675 33.6364 129.364 32.9091 127.44 31.1948L121.201 25.6364C117.718 22.5714 116.99 20.8052 116.99 17.3247V16.1818C116.99 9.63636 119.485 6 127.024 6C134.563 6 137.058 9.06493 137.058 17.4286V18.4675C137.058 19.974 136.642 20.3896 135.135 20.3896H131.599C130.091 20.3896 129.675 19.974 129.675 18.4675V16.1818C129.675 14.1039 128.844 13.2727 127.024 13.2727C125.204 13.2727 124.372 14.0519 124.372 15.9221V16.8052C124.372 18.3117 124.684 19.039 126.14 20.3896Z"/>
		<path fill="white" d="M155.505 13.7922H152.281C151.554 13.7922 151.346 14 151.346 14.7273V43.5584C151.346 45.0649 150.93 45.4805 149.422 45.4805H146.094C144.587 45.4805 144.171 45.0649 144.171 43.5584V14.7273C144.171 14 143.963 13.7922 143.235 13.7922H140.012C138.504 13.7922 138.088 13.3766 138.088 11.8701V8.44156C138.088 6.93506 138.504 6.51948 140.012 6.51948H155.505C157.013 6.51948 157.429 6.93506 157.429 8.44156V11.8701C157.429 13.3766 157.013 13.7922 155.505 13.7922Z"/>
		<path fill="white" d="M172.263 43.5584V29.5325C172.263 28.8052 172.055 28.5974 171.327 28.5974H167.064C166.336 28.5974 166.128 28.8052 166.128 29.5325V43.5584C166.128 45.0649 165.712 45.4805 164.204 45.4805H160.877C159.369 45.4805 158.953 45.0649 158.953 43.5584V8.44156C158.953 6.93506 159.369 6.51948 160.877 6.51948H164.204C165.712 6.51948 166.128 6.93506 166.128 8.44156V20.3896C166.128 21.0649 166.336 21.3247 167.064 21.3247H171.327C172.055 21.3247 172.263 21.0649 172.263 20.3896V8.44156C172.263 6.93506 172.679 6.51948 174.187 6.51948H177.514C179.022 6.51948 179.438 6.93506 179.438 8.44156V43.5584C179.438 45.0649 179.022 45.4805 177.514 45.4805H174.187C172.679 45.4805 172.263 45.0649 172.263 43.5584Z"/>
		<path fill="white" d="M191.362 14.7273V20.5455C191.362 21.2208 191.57 21.4805 192.298 21.4805H198.745C200.252 21.4805 200.668 21.8961 200.668 23.4026V26.8312C200.668 28.3377 200.252 28.7532 198.849 28.7532H192.298C191.57 28.7532 191.362 28.961 191.362 29.6883V37.2727C191.362 37.948 191.57 38.2078 192.298 38.2078H199.369C200.876 38.2078 201.292 38.6234 201.292 40.1299V43.5584C201.292 45.0649 200.876 45.4805 199.369 45.4805H186.111C184.603 45.4805 184.187 45.0649 184.187 43.5584V8.44156C184.187 6.93506 184.603 6.51948 186.111 6.51948H199.369C200.876 6.51948 201.292 6.93506 201.292 8.44156V11.8701C201.292 13.3766 200.876 13.7922 199.369 13.7922H192.298C191.57 13.7922 191.362 14 191.362 14.7273Z"/>
		<path fill="white" d="M211.773 37.3766C211.773 38 211.98 38.2078 212.708 38.2078H219.207C220.715 38.2078 221.131 38.6234 221.131 40.1299V43.5584C221.131 45.0649 220.715 45.4805 219.207 45.4805H206.521C205.014 45.4805 204.598 45.0649 204.598 43.5584V8.44156C204.598 6.93506 205.014 6.51948 206.521 6.51948H209.849C211.357 6.51948 211.773 6.93506 211.773 8.44156V37.3766Z"/>
		<path fill="white" d="M231.51 32.1299H230.834C230.106 32.1299 229.898 32.3377 229.898 33.0649V43.5584C229.898 45.0649 229.482 45.4805 227.975 45.4805H224.647C223.139 45.4805 222.724 45.0649 222.724 43.5584V8.44156C222.724 6.93506 223.139 6.51948 224.647 6.51948H231.51C239.413 6.51948 243 9.37662 243 16.3896V22.2597C243 29.2727 239.413 32.1299 231.51 32.1299ZM229.898 14.7273V23.9221C229.898 24.6493 230.106 24.8571 230.834 24.8571H231.926C234.473 24.8571 235.617 23.8182 235.617 21.1688V17.4805C235.617 14.8312 234.473 13.7922 231.926 13.7922H230.834C230.106 13.7922 229.898 14 229.898 14.7273Z"/>
    </g>
    <defs>
        <filter color-interpolation-filters="sRGB" filterUnits="userSpaceOnUse" height="60" width="257" y="-1" x="-2" id="filter0_d_364_2047">
            <feFlood result="BackgroundImageFix" flood-opacity="0"/>
            <feColorMatrix result="hardAlpha" values="0 0 0 0 0 0 0 0 0 0 0 0 0 0 0 0 0 0 127 0" type="matrix" in="SourceAlpha"/>
            <feOffset dy="3" dx="2"/>
            <feGaussianBlur stdDeviation="2"/>
            <feColorMatrix values="0 0 0 0 0 0 0 0 0 0 0 0 0 0 0 0 0 0 1 0" type="matrix"/>
            <feBlend result="effect1_dropShadow_364_2047" in2="BackgroundImageFix" mode="normal"/>
            <feBlend result="shape" in2="effect1_dropShadow_364_2047" in="SourceGraphic" mode="normal"/>
        </filter>
        <clipPath id="clip0_364_2047">
            <rect transform="translate(6 6.07184)" fill="white" height="39.8563" width="52"/>
        </clipPath>
    </defs>
</svg>